<?xml version="1.0" encoding="utf-8"?>
<!-- Generator: Adobe Illustrator 16.0.0, SVG Export Plug-In . SVG Version: 6.00 Build 0)  -->
<!DOCTYPE svg PUBLIC "-//W3C//DTD SVG 1.0//EN" "http://www.w3.org/TR/2001/REC-SVG-20010904/DTD/svg10.dtd">
<svg version="1.0" id="Isolation_Mode" xmlns="http://www.w3.org/2000/svg" xmlns:xlink="http://www.w3.org/1999/xlink" x="0px"
	 y="0px" width="70px" height="70px" viewBox="0 0 70 70" enable-background="new 0 0 70 70" xml:space="preserve">
<g>
	<g>
		<g>
			<g>
				<path fill="#5C7291" stroke="#5C7291" stroke-miterlimit="10" d="M4.643,58.137C2.082,58.133,0.004,56.055,0,53.494l0,0v-34.64
					c0.004-2.561,2.082-4.638,4.643-4.642l0,0v1.071v1.07c-1.368,0.003-2.497,1.133-2.5,2.5l0,0v34.64
					c0.003,1.367,1.132,2.497,2.5,2.499l0,0l42.838,0.001c1.367-0.003,2.495-1.133,2.499-2.5l0,0v-34.64
					c-0.004-1.367-1.132-2.497-2.499-2.499l0,0H4.643v-1.071v-1.071H47.48c2.56,0.004,4.637,2.081,4.641,4.642l0,0v34.64
					c-0.004,2.561-2.081,4.639-4.641,4.643l0,0H4.643L4.643,58.137z"/>
			</g>
		</g>
		<g>
			<g>
				<path fill="#5C7291" stroke="#5C7291" stroke-miterlimit="10" d="M66.403,52.156c-0.394,0-0.797-0.058-1.202-0.175l0,0
					l-14.446-4.143h0.001c-0.57-0.164-0.898-0.756-0.735-1.325l0,0c0.163-0.569,0.756-0.898,1.325-0.734l0,0l14.445,4.144
					c0.224,0.064,0.428,0.091,0.612,0.091l0,0c0.459-0.004,0.783-0.156,1.029-0.411l0,0c0.241-0.258,0.423-0.649,0.426-1.235l0,0
					l-0.001-25.116c-0.002-0.588-0.184-0.98-0.425-1.237l0,0c-0.246-0.255-0.568-0.407-1.029-0.411l0,0
					c-0.185,0-0.388,0.027-0.611,0.091l0,0l-14.445,4.145c-0.57,0.163-1.163-0.165-1.326-0.733l0,0
					c-0.163-0.569,0.165-1.163,0.734-1.326l0,0l14.443-4.144c0.406-0.117,0.811-0.175,1.205-0.175l0,0
					c0.991-0.004,1.932,0.385,2.585,1.08l0,0c0.658,0.692,1.015,1.659,1.012,2.711l0,0v25.116c0.003,1.051-0.354,2.017-1.012,2.71
					l0,0c-0.651,0.691-1.585,1.079-2.569,1.079l0,0C66.414,52.156,66.408,52.156,66.403,52.156L66.403,52.156z"/>
			</g>
		</g>
	</g>
	<g>
		<g>
			<path fill="#5C7291" stroke="#5C7291" stroke-miterlimit="10" d="M4.473,68.859c-0.544-0.233-0.795-0.863-0.562-1.407l0,0
				l4.641-10.81c0.233-0.544,0.862-0.796,1.407-0.562l0,0c0.544,0.232,0.795,0.862,0.562,1.406l0,0L5.88,68.297
				c-0.174,0.407-0.568,0.649-0.984,0.649l0,0C4.755,68.946,4.611,68.918,4.473,68.859L4.473,68.859z"/>
		</g>
		<g>
			<path fill="#5C7291" stroke="#5C7291" stroke-miterlimit="10" d="M47.197,68.297l-4.641-10.81
				c-0.234-0.543,0.018-1.174,0.563-1.407l0,0c0.543-0.232,1.173,0.019,1.406,0.563l0,0l4.641,10.81
				c0.233,0.543-0.018,1.174-0.562,1.407l0,0c-0.138,0.059-0.281,0.087-0.422,0.087l0,0C47.767,68.946,47.372,68.703,47.197,68.297
				L47.197,68.297z"/>
		</g>
	</g>
	<g>
		<g>
			<path fill="#5C7291" stroke="#5C7291" stroke-miterlimit="10" d="M8.465,8.704c0.001-4.226,3.426-7.649,7.65-7.65l0,0
				c4.226,0.001,7.65,3.425,7.65,7.65l0,0c0,4.227-3.425,7.65-7.65,7.651l0,0C11.891,16.354,8.466,12.931,8.465,8.704L8.465,8.704z
				 M10.607,8.704c0.005,3.043,2.467,5.504,5.508,5.509l0,0c3.041-0.005,5.503-2.466,5.508-5.509l0,0
				c-0.005-3.04-2.467-5.503-5.508-5.508l0,0C13.074,3.201,10.612,5.664,10.607,8.704L10.607,8.704z"/>
		</g>
		<g>
			<path fill="#5C7291" stroke="#5C7291" stroke-miterlimit="10" d="M30.944,8.705c0.001-4.226,3.425-7.65,7.652-7.651l0,0
				c4.225,0.001,7.648,3.426,7.65,7.651l0,0c-0.001,4.227-3.426,7.649-7.65,7.65l0,0C34.37,16.354,30.945,12.932,30.944,8.705
				L30.944,8.705z M33.088,8.705c0.005,3.042,2.466,5.502,5.509,5.507l0,0c3.04-0.005,5.503-2.465,5.508-5.507l0,0
				c-0.005-3.042-2.469-5.504-5.508-5.51l0,0C35.555,3.201,33.093,5.663,33.088,8.705L33.088,8.705z"/>
		</g>
	</g>
	<g>
		<g id="XMLID_812_">
			<path fill="#5C7291" d="M34.222,37.25l-11.52,6.65c-0.727,0.417-1.634-0.104-1.634-0.943V29.656c0-0.839,0.907-1.362,1.634-0.943
				l11.52,6.65C34.946,35.783,34.946,36.83,34.222,37.25z"/>
		</g>
		<g id="XMLID_811_">
			<path id="XMLID_1730_" fill="#5C7291" d="M22.158,45.229c-0.39,0-0.78-0.103-1.137-0.309c-0.71-0.408-1.133-1.143-1.133-1.963
				V29.656c0-0.82,0.423-1.555,1.136-1.966c0.71-0.408,1.558-0.408,2.268,0.001l11.52,6.65c0.71,0.411,1.133,1.146,1.133,1.965
				c0,0.82-0.423,1.555-1.133,1.965l-11.52,6.65C22.936,45.126,22.545,45.229,22.158,45.229z M22.247,29.813v12.987l11.292-6.521
				L22.247,29.813z"/>
		</g>
	</g>
</g>
</svg>
