<?xml version="1.0" encoding="utf-8"?>
<!-- Generator: Adobe Illustrator 16.0.0, SVG Export Plug-In . SVG Version: 6.00 Build 0)  -->
<!DOCTYPE svg PUBLIC "-//W3C//DTD SVG 1.0//EN" "http://www.w3.org/TR/2001/REC-SVG-20010904/DTD/svg10.dtd">
<svg version="1.0" xmlns="http://www.w3.org/2000/svg" xmlns:xlink="http://www.w3.org/1999/xlink" x="0px" y="0px" width="70px"
	 height="70px" viewBox="0 0 70 70" enable-background="new 0 0 70 70" xml:space="preserve">
<g id="color">
</g>
<g id="Icons">
	<path fill="#5C7291" d="M56.919,13.346h-3.178v-2.783h3.178c1.453,0,2.636-1.182,2.636-2.635V1.476h2.783v6.452
		C62.338,10.916,59.907,13.346,56.919,13.346z M22,37.023h-2.783v2.896h-2.772v2.783h2.772v2.896H22v-2.896h2.946v-2.783H22V37.023z
		 M53.741,10.563h-8.707v2.783h8.707V10.563z M36.807,15.981c0-1.453,1.183-2.636,2.636-2.636h6.43v-2.783h-6.43
		c-2.988,0-5.419,2.431-5.419,5.419v6.995h2.783V15.981z M52.152,39.708v2.783h2.53v-2.783H52.152z M66.541,64.157
		c-2.521,2.775-6.115,4.367-9.864,4.367h-0.288c-5.574,0-10.604-3.519-12.517-8.754l-0.854-2.342
		c-2.169-0.319-3.98-1.739-4.846-3.677h-6.756c-0.842,1.887-2.581,3.283-4.674,3.65l-0.968,2.541
		c-1.955,5.132-6.959,8.581-12.451,8.581c-3.749,0-7.345-1.592-9.865-4.368c-2.52-2.775-3.758-6.508-3.396-10.239l1.771-18.295
		c1.188-12.284,15.69-17.676,24.693-9.799l1.405,1.229h1.955v-0.751c0-1.831,1.489-3.32,3.319-3.32h3.881
		c1.831,0,3.32,1.489,3.32,3.32v0.751h1.703l1.117-1.02c8.944-8.167,23.738-2.831,24.941,9.588l1.771,18.296
		C70.3,57.648,69.061,61.381,66.541,64.157z M32.669,27.053h4.954c0-0.622,0.106-1.287-0.537-1.287
		C32.186,25.766,32.669,25.482,32.669,27.053z M29.182,51.188c0-1.947-1.584-3.532-3.531-3.532c-1.948,0-3.533,1.585-3.533,3.532
		s1.585,3.532,3.533,3.532C27.598,54.721,29.182,53.136,29.182,51.188z M43.939,54.721c1.947,0,3.531-1.585,3.531-3.532
		s-1.584-3.532-3.531-3.532c-1.948,0-3.533,1.585-3.533,3.532S41.991,54.721,43.939,54.721z M67.168,54.185l-1.77-18.295
		c-0.606-6.258-5.805-10.978-12.093-10.978c-5.316,0-8.056,3.042-10.117,4.924c-5.838,0-10.249,0-16.303,0l-2.193-1.918
		C17.37,21.509,5.568,25.897,4.602,35.89l-1.77,18.295c-0.286,2.952,0.693,5.905,2.688,8.101c1.993,2.196,4.838,3.456,7.804,3.456
		c4.345,0,8.304-2.729,9.85-6.788l0.655-1.72c-6.935-2.094-5.4-12.36,1.822-12.36c3.407,0,6.187,2.716,6.304,6.096h5.68
		c0.118-3.38,2.896-6.096,6.306-6.096c3.481,0,6.314,2.833,6.314,6.315c0,2.8-1.832,5.176-4.359,6.002l0.593,1.625
		c1.513,4.143,5.491,6.926,9.901,6.926h0.288c2.966,0,5.811-1.26,7.804-3.455C66.474,60.09,67.454,57.138,67.168,54.185z
		 M50.372,30.657c-5.874,0-10.653,4.779-10.653,10.653c0,1.081,0.16,2.139,0.482,3.177l2.658-0.824
		c-1.59-5.138,2.273-10.223,7.513-10.223c4.34,0,7.87,3.53,7.87,7.87c0,4.024-3.012,7.389-7.006,7.823l0.302,2.768
		c5.409-0.59,9.487-5.143,9.487-10.591C61.025,35.437,56.246,30.657,50.372,30.657z M46.062,42.491h2.53v-2.783h-2.53V42.491z
		 M20.608,30.657c-5.874,0-10.653,4.779-10.653,10.653c0,4.72,3.03,8.815,7.541,10.191l0.813-2.662
		c-8.622-2.631-6.681-15.399,2.3-15.399c5.401,0,9.2,5.341,7.441,10.439l2.632,0.908c0.385-1.116,0.58-2.286,0.58-3.478
		C31.262,35.437,26.482,30.657,20.608,30.657z M51.717,37.023h-2.783v2.53h2.783V37.023z M51.717,43.067h-2.783v2.53h2.783V43.067z"
		/>
</g>
</svg>
