<?xml version="1.0" encoding="utf-8"?>
<!-- Generator: Adobe Illustrator 16.0.0, SVG Export Plug-In . SVG Version: 6.00 Build 0)  -->
<!DOCTYPE svg PUBLIC "-//W3C//DTD SVG 1.0//EN" "http://www.w3.org/TR/2001/REC-SVG-20010904/DTD/svg10.dtd">
<svg version="1.0" id="Layer_2" xmlns="http://www.w3.org/2000/svg" xmlns:xlink="http://www.w3.org/1999/xlink" x="0px" y="0px"
	 width="70px" height="70px" viewBox="0 0 70 70" enable-background="new 0 0 70 70" xml:space="preserve">
<g>
	<g>
		<circle fill="none" cx="24.831" cy="60.624" r="1.171"/>
		<path fill="#5C7191" d="M24.831,56.388c-2.336,0-4.236,1.9-4.236,4.236s1.9,4.236,4.236,4.236s4.236-1.9,4.236-4.236
			S27.167,56.388,24.831,56.388z M24.831,61.795c-0.646,0-1.171-0.525-1.171-1.171s0.525-1.171,1.171-1.171
			c0.645,0,1.17,0.525,1.17,1.171S25.476,61.795,24.831,61.795z"/>
		<path fill="#5C7191" d="M40.774,11.113v3.018h3.065V6.5c0-3.583-2.916-6.5-6.499-6.5H11.095C7.512,0,4.596,2.916,4.596,6.5v57.001
			c0,3.584,2.916,6.499,6.499,6.499h26.246c3.583,0,6.499-2.915,6.499-6.499V48.979h-3.065v9.3v3.065v2.156
			c0,1.894-1.54,3.434-3.434,3.434H11.095c-1.894,0-3.434-1.54-3.434-3.434v-2.156v-3.065V11.113V8.047V6.5
			c0-1.894,1.54-3.434,3.434-3.434h26.246c1.894,0,3.434,1.541,3.434,3.434v1.548V11.113z"/>
		<rect x="6.895" y="7.976" fill="#5C7191" width="34.646" height="3.208"/>
		<rect x="6.895" y="58.279" fill="#5C7191" width="11.083" height="3.065"/>
		<rect x="31.07" y="58.279" fill="#5C7191" width="10.471" height="3.065"/>
	</g>
	<g>
		<rect x="42.596" y="27.042" fill="#5C7191" width="19.003" height="2.913"/>
		<rect x="42.596" y="33.904" fill="#5C7191" width="13.239" height="2.913"/>
		<path fill="#5C7191" d="M63.007,16.438h-8.791c-0.001-0.002-0.003-0.004-0.004-0.007h-3.479c0.002,0.002,0.005,0.005,0.006,0.007
			h-9.967c-2.796,0-5.357,1.716-6.441,4.292H34.31c-0.57,1.191-0.529,2.913-0.529,2.913h0.001c0,0.188-0.001,0.445-0.001,0.733
			v0.079l0,0c-0.002,0.943-0.001,2.212-0.001,2.829v0.21l-9.441,11.933h9.446c0.136,4.592,3.325,7.07,6.595,7.254h22.983
			C67.053,46.494,70,43.441,70,39.706V23.43C70,19.574,66.863,16.438,63.007,16.438z M67.087,39.706c0,2.249-1.83,4.079-4.08,4.079
			H40.771c-2.249,0-4.079-1.83-4.079-4.079v-3.193h-6.337l6.337-8.008V23.43c0-2.249,1.83-4.079,4.079-4.079h22.235
			c2.25,0,4.08,1.83,4.08,4.079V39.706z"/>
	</g>
</g>
</svg>
