<?xml version="1.0" encoding="utf-8"?>
<!-- Generator: Adobe Illustrator 16.0.0, SVG Export Plug-In . SVG Version: 6.00 Build 0)  -->
<!DOCTYPE svg PUBLIC "-//W3C//DTD SVG 1.1//EN" "http://www.w3.org/Graphics/SVG/1.1/DTD/svg11.dtd">
<svg version="1.1" id="Layer_1" xmlns="http://www.w3.org/2000/svg" xmlns:xlink="http://www.w3.org/1999/xlink" x="0px" y="0px"
	 width="214.818px" height="36px" viewBox="0 0 214.818 36" enable-background="new 0 0 214.818 36" xml:space="preserve">
<g>
	<path fill="#F57E24" d="M54.112,17.965C54.13,8.025,62.206-0.017,72.147,0c9.939,0.019,17.983,8.091,17.966,18.034
		C90.091,27.979,82.018,36.02,72.079,36C62.137,35.98,54.094,27.91,54.112,17.965"/>
	<polygon fill="#1E2257" points="13.332,13.424 13.338,8.801 0.038,8.776 0,29.178 13.3,29.205 13.308,24.57 5.313,24.555 
		5.322,21.092 12.196,21.102 12.205,16.881 5.333,16.869 5.343,13.41 	"/>
	<path fill="#1E2257" d="M36.036,29.111c0.875,0.145,3.479,0.709,6.833,0.434c2.955-0.245,6.662-1.98,6.732-6.621
		c0.033-1.997-0.579-4.322-3.479-5.473l-4.354-1.563c-0.47-0.192-0.853-0.619-0.869-0.999c-0.024-0.761,0.591-1.471,1.968-1.639
		c1.225-0.148,3.152,0.049,5.536,0.607l-0.022-4.752c-0.821-0.22-2.795-0.734-5.451-0.822c-3.516-0.116-7.041,2.139-7.267,6.544
		c-0.112,2.182,0.881,4.633,3.459,5.569l4.015,1.463c0.994,0.429,1.028,0.854,1.052,1.189c0.043,0.616-0.556,1.084-1.344,1.393
		c-1.044,0.402-4.125,0.429-6.779-0.383L36.036,29.111z"/>
	<path fill="#1E2257" d="M22.635,13.391c2.354-0.402,4.924,0.239,4.92,1.905c-0.003,1.663-2.577,2.295-4.927,1.885L22.635,13.391z
		 M22.619,20.917c2.355-0.401,4.925,0.244,4.92,1.907c-0.003,1.665-2.574,2.295-4.926,1.884L22.619,20.917z M17.33,8.808
		l-0.039,20.413l7.946,0.014c6.562,0.014,7.648-3.99,7.651-5.604c0.005-2.401-1.008-3.819-2.639-4.582
		c1.404-0.764,2.375-2.197,2.38-4.425c0.003-1.918-1.206-5.786-7.4-5.797L17.33,8.808z"/>
	<path fill="#FFFFFF" d="M73.517,15.054c0.996-0.604,1.68-1.313,2.055-2.123c0.332-0.851,0.116-1.479-0.648-1.885
		c-0.767-0.408-1.79-0.388-3.075,0.055c-1.116,0.362-2.062,1.03-2.827,1.999c-0.768,0.972-1.277,1.862-1.526,2.671
		c0.289,0.125,0.742,0.228,1.361,0.31c0.624,0.083,1.203,0.083,1.741,0.004C71.551,16.004,72.523,15.663,73.517,15.054
		 M62.688,12.118c0.853-1.458,1.92-2.691,3.205-3.703c1.244-1.009,2.661-1.757,4.255-2.241c1.598-0.482,3.223-0.684,4.878-0.6
		c1.861,0.127,3.404,0.736,4.623,1.832c1.219,1.1,1.827,2.438,1.823,4.018c-0.002,1.258-0.253,2.392-0.751,3.403
		c-0.5,1.014-1.145,1.922-1.93,2.733c-0.789,0.764-1.691,1.415-2.704,1.94c-1.018,0.523-2.044,0.906-3.078,1.148
		c-0.995,0.24-2.041,0.341-3.137,0.299c-1.096-0.043-1.998-0.188-2.698-0.434c0.119,0.729,0.614,1.459,1.484,2.192
		c0.869,0.729,2.087,1.06,3.662,0.979c1.035-0.037,2.195-0.317,3.479-0.845c1.282-0.522,2.319-1.067,3.107-1.637
		c0.58-0.241,1.107-0.229,1.583,0.035c0.475,0.263,0.858,0.639,1.147,1.126c0.247,0.486,0.399,1.003,0.461,1.551
		c0.06,0.549-0.032,0.982-0.283,1.307c-0.993,0.852-2.4,1.646-4.226,2.396c-1.823,0.746-3.625,1.137-5.403,1.175
		c-2.277,0.077-4.152-0.22-5.619-0.895c-1.467-0.672-2.616-1.555-3.44-2.649c-0.867-1.138-1.436-2.412-1.702-3.832
		c-0.265-1.42-0.336-2.897-0.208-4.439C61.348,15.195,61.837,13.575,62.688,12.118"/>
</g>
<g>
	<path fill="#3C3C3C" d="M121.687,25.523v1.742h-21.086v-1.742h5.174v-7.723h2.106v7.723h3.666v-7.723h2.105v7.723H121.687z
		 M117.085,11.302h-14.301V9.56h16.433v2.574c0,2.964,0,6.006-0.832,10.374l-2.105-0.26c0.807-4.16,0.807-7.229,0.807-10.114
		L117.085,11.302L117.085,11.302z"/>
	<path fill="#3C3C3C" d="M130.034,23.548c2.547-0.104,5.147-0.233,7.514-0.546l0.131,1.561c-4.838,0.779-10.322,0.886-14.457,0.886
		l-0.232-1.771c1.48,0,3.197-0.025,4.939-0.078v-7.176h2.105V23.548z M133.256,20.09c0.649-3.874,0.701-6.708,0.701-8.58h-9.698
		V9.768h11.778v1.274c0,1.872,0,4.914-0.648,9.256L133.256,20.09z M144.827,18.764h-3.718v11.778h-2.133V7.22h2.133v9.75h3.718
		V18.764z"/>
	<path fill="#3C3C3C" d="M154.004,13.408c0,4.238,2.651,8.476,6.031,10.088l-1.248,1.689c-2.65-1.326-4.783-4.107-5.851-7.386
		c-1.015,3.458-3.172,6.396-5.799,7.802l-1.3-1.689c3.379-1.689,6.031-6.188,6.031-10.504V9.222h2.133L154.004,13.408
		L154.004,13.408z M165.054,7.22v23.349h-2.132V16.866h-5.407v-1.742h5.407V7.22H165.054z"/>
	<path fill="#3C3C3C" d="M184.06,17.698c-1.063,1.247-2.729,2.001-4.705,2.001c-3.459,0-6.006-2.288-6.006-5.563
		c0-3.25,2.547-5.512,6.006-5.512c1.978,0,3.642,0.754,4.705,1.95h5.979V7.22h2.158v13.806h-2.158v-3.326L184.06,17.698
		L184.06,17.698z M179.355,17.88c2.287,0,3.951-1.56,3.951-3.744c0-2.158-1.664-3.718-3.951-3.718c-2.263,0-3.979,1.56-3.979,3.718
		C175.377,16.32,177.092,17.88,179.355,17.88z M192.277,26.044c0,2.834-2.989,4.472-7.801,4.472c-4.783,0-7.748-1.638-7.748-4.472
		s2.965-4.472,7.748-4.472C189.288,21.573,192.277,23.21,192.277,26.044z M190.17,26.044c0-1.769-2.131-2.808-5.693-2.808
		c-3.51,0-5.643,1.039-5.643,2.808c0,1.742,2.133,2.782,5.643,2.782C188.04,28.827,190.17,27.787,190.17,26.044z M185.049,12.316
		c0.182,0.546,0.285,1.144,0.285,1.82c0,0.65-0.104,1.248-0.312,1.82h5.019v-3.64H185.049z"/>
	<path fill="#3C3C3C" d="M214.818,7.22v23.376h-2.131V17.855h-5.069c-0.209,4.577-2.521,7.437-5.771,7.437
		c-3.406,0-5.824-3.172-5.824-8.138c0-4.966,2.418-8.138,5.824-8.138c3.146,0,5.434,2.73,5.771,7.098h5.069V7.22H214.818z
		 M205.616,17.152c0-3.77-1.562-6.214-3.771-6.214c-2.236,0-3.797,2.444-3.797,6.214c0,3.795,1.561,6.241,3.797,6.241
		C204.054,23.393,205.616,20.948,205.616,17.152z"/>
</g>
</svg>
