<?xml version="1.0" encoding="utf-8"?>
<!-- Generator: Adobe Illustrator 16.0.0, SVG Export Plug-In . SVG Version: 6.00 Build 0)  -->
<!DOCTYPE svg PUBLIC "-//W3C//DTD SVG 1.0//EN" "http://www.w3.org/TR/2001/REC-SVG-20010904/DTD/svg10.dtd">
<svg version="1.0" id="icons" xmlns="http://www.w3.org/2000/svg" xmlns:xlink="http://www.w3.org/1999/xlink" x="0px" y="0px"
	 width="70px" height="70px" viewBox="0 0 70 70" enable-background="new 0 0 70 70" xml:space="preserve">
<g>
	<g>
		<g>
			<g>
				<path fill="#5C7191" d="M45.346,56.073c-0.531,0-1.043-0.222-1.406-0.608c-0.363-0.389-0.543-0.896-0.508-1.432l0.291-4.532
					c0.188-2.963,0.273-4.314,1.676-7.391l12.344-25.457l9.105,4.213L54.41,46.526c-1.111,2.44-2.105,3.392-3.482,4.708
					c-0.381,0.365-0.807,0.772-1.291,1.266c-1.055,1.074-2.148,2.19-2.924,2.991C46.348,55.867,45.861,56.073,45.346,56.073z
					 M59.021,20.235l-11.168,23.03c-1.182,2.592-1.242,3.553-1.422,6.406l-0.152,2.377c0.459-0.47,0.943-0.965,1.422-1.45
					c0.506-0.517,0.951-0.942,1.352-1.324c1.326-1.271,1.992-1.908,2.9-3.902l11.248-23.203L59.021,20.235z"/>
			</g>
		</g>
		<g>
			<g>
				
					<rect x="42.152" y="56.685" transform="matrix(0.9106 0.4132 -0.4132 0.9106 27.8657 -12.7925)" fill="#5C7191" width="2.713" height="2.687"/>
			</g>
		</g>
		<g>
			<g>
				<path fill="#5C7191" d="M50.209,49.686c-0.066-0.111-1.639-2.703-4.527-2.123l-0.533-2.661c4.838-0.965,7.309,3.251,7.412,3.431
					l-2.357,1.347l1.18-0.673L50.209,49.686z"/>
			</g>
		</g>
		<g>
			<g>
				<path fill="#5C7191" d="M65.748,23.197l-9.127-4.222l3.221-7.063l9.127,4.224L65.748,23.197z M60.211,17.645l4.201,1.944
					l0.967-2.123l-4.201-1.943L60.211,17.645z"/>
			</g>
		</g>
		<g>
			<g>
				<path fill="#5C7191" d="M68.295,14.713l-2.469-1.126l1.418-3.108l-2.012-0.931l-1.336,2.925l-2.467-1.126l1.395-3.061
					c0.285-0.628,0.799-1.104,1.445-1.344c0.643-0.239,1.34-0.212,1.963,0.078l2.277,1.054c1.279,0.593,1.846,2.121,1.258,3.407
					L68.295,14.713z"/>
			</g>
		</g>
	</g>
	<path fill="#5C7191" d="M57.795,42.898v18.349c0,1.676-1.365,3.039-3.041,3.039H15.239c-1.676,0-3.04-1.363-3.04-3.039V8.754
		c0-1.677,1.363-3.04,3.04-3.04h39.515c1.676,0,3.041,1.363,3.041,3.04v0.186h2.713V8.754C60.508,5.581,57.926,3,54.754,3H15.239
		c-3.172,0-5.753,2.581-5.753,5.754v52.493c0,3.172,2.581,5.753,5.753,5.753h39.515c3.172,0,5.754-2.581,5.754-5.753V42.898H57.795z
		"/>
	<g>
		<rect x="19.672" y="17.332" fill="#5C7191" width="32.889" height="2.578"/>
		<rect x="19.672" y="26.799" fill="#5C7191" width="20.074" height="2.578"/>
		<rect x="19.672" y="36.297" fill="#5C7191" width="20.074" height="2.578"/>
		<rect x="19.672" y="45.795" fill="#5C7191" width="11.72" height="2.578"/>
	</g>
</g>
</svg>
